
<svg width="192" height="192" viewBox="0 0 192 192" fill="none" xmlns="http://www.w3.org/2000/svg">
  <rect width="192" height="192" rx="42.666666666666664" fill="#22c55e"/>
  <g transform="translate(32.064, 32.064) scale(2.6666666666666665)">
    <!-- Carrinho de compras -->
    <path d="M7 4V2C7 1.44772 7.44772 1 8 1H16C16.5523 1 17 1.44772 17 2V4H19C19.5523 4 20 4.44772 20 5C20 5.55228 19.5523 6 19 6H17V19C17 20.6569 15.6569 22 14 22H10C8.34315 22 7 20.6569 7 19V6H5C4.44772 6 4 5.55228 4 5C4 4.44772 4.44772 4 5 4H7Z" fill="white"/>
    <!-- Folha eco -->
    <path d="M9 10.5V8.5C9 8.22386 9.22386 8 9.5 8H14.5C14.7761 8 15 8.22386 15 8.5V10.5C15 10.7761 14.7761 11 14.5 11H9.5C9.22386 11 9 10.7761 9 10.5Z" fill="#22c55e"/>
    <path d="M9 14.5V12.5C9 12.2239 9.22386 12 9.5 12H12.5C12.7761 12 13 12.2239 13 12.5V14.5C13 14.7761 12.7761 15 12.5 15H9.5C9.22386 15 9 14.7761 9 14.5Z" fill="#22c55e"/>
  </g>
</svg>